<?xml version="1.0" ?><svg height="24px" version="1.1" viewBox="0 0 24 24" width="24px" xmlns="http://www.w3.org/2000/svg" xmlns:sketch="http://www.bohemiancoding.com/sketch/ns" xmlns:xlink="http://www.w3.org/1999/xlink"><title/><desc/><defs/><g fill="none" fill-rule="evenodd" id="miu" stroke="none" stroke-width="1"><g id="Artboard-1" transform="translate(-503.000000, -263.000000)"><g id="slice" transform="translate(215.000000, 119.000000)"/><path d="M513.733042,266 L506,266 C506,266 504,266 504,268 L504,282.094897 C504,282.583021 504.393787,282.978723 504.879487,282.978723 C504.879487,282.978723 511.663518,282.978724 512.921903,282.978723 C514.180288,282.978723 514.618342,285 514.618342,285 L515,285 L515,267.233196 C515,266.818726 514.366521,266 513.733042,266 Z M516.292936,266 L524,266 C524,266 526,266 526,268 L526,282.094897 C526,282.583021 525.606213,282.978723 525.120513,282.978723 C525.120513,282.978723 518.336482,282.978724 517.078097,282.978723 C515.819712,282.978723 515.381658,285 515.381658,285 L515,285 L515,267.229939 C515,266.817097 515.646468,266 516.292936,266 Z M505.480253,267 C505.235176,267 505.035998,267.201534 505.035376,267.450781 L505.000001,281.611394 C504.99938,281.860353 505.198878,282.062175 505.439283,282.062175 C505.439283,282.062175 512.166075,282.062175 513.005763,282.062175 C513.845452,282.062175 514.5,283 514.5,283 L514.5,267.67728 C514.5,267.303229 514.201146,267 513.838306,267 L505.480253,267 Z M524.519747,267 C524.764824,267 524.964002,267.201534 524.964624,267.450781 L524.999999,281.611394 C525.00062,281.860353 524.801122,282.062175 524.560717,282.062175 C524.560717,282.062175 517.833925,282.062175 516.994237,282.062175 C516.154548,282.062175 515.5,283 515.5,283 L515.5,267.67728 C515.5,267.303229 515.798854,267 516.161694,267 L524.519747,267 L524.519747,267 Z" fill="#000000" id="common-bookmark-book-open-outline-stroke"/></g></g></svg>