<?xml version="1.0" encoding="utf-8"?>
<!-- Generator: Adobe Illustrator 21.0.2, SVG Export Plug-In . SVG Version: 6.00 Build 0)  -->
<svg version="1.1" id="Layer_1" xmlns="http://www.w3.org/2000/svg" xmlns:xlink="http://www.w3.org/1999/xlink" x="0px" y="0px"
	 viewBox="0 0 45 35" style="enable-background:new 0 0 45 35;" xml:space="preserve">
<style type="text/css">
	.st0{fill:#EE3E36;}
	.st1{fill:#FFFFFF;}
	.st2{fill:none;stroke:#000000;stroke-width:2;stroke-miterlimit:10;}
</style>
<g>
	<path class="st0" d="M37,11H16c-0.5,0-1-0.4-1-1v0c0-0.5,0.4-1,1-1h21c0.5,0,1,0.4,1,1v0C38,10.6,37.5,11,37,11z"/>
	<path class="st0" d="M34,15H18c-0.5,0-1-0.4-1-1v0c0-0.6,0.4-1,1-1h16c0.5,0,1,0.4,1,1v0C35,14.5,34.5,15,34,15z"/>
	<path class="st0" d="M32,19H21c-0.5,0-1-0.4-1-1v0c0-0.5,0.4-1,1-1h11c0.5,0,1,0.4,1,1v0C33,18.5,32.5,19,32,19z"/>
</g>
<g>
	<circle class="st0" cx="19.5" cy="29.5" r="4.5"/>
	<g>
		<circle class="st1" cx="19.5" cy="29.5" r="2.5"/>
	</g>
</g>
<g>
	<circle class="st0" cx="33.5" cy="29.5" r="4.5"/>
	<g>
		<circle class="st1" cx="33.5" cy="29.5" r="2.5"/>
	</g>
</g>
<path class="st2" d="M0.9,2.1l6.7,0.4c0,0,2,0,2,2c0,0,0.1,0.4,0.2,1c0.8,3.6,3.8,16,3.8,16s0,3,3,2h19c0,0,3,1,3-2l4-13
	c0,0,2-3-2-3s-30.1,0-30.6,0"/>
</svg>
